<svg width="17" height="17" viewBox="0 0 17 17" fill="none" xmlns="http://www.w3.org/2000/svg">
<path d="M7 4C7.19891 4 7.38968 4.07902 7.53033 4.21967C7.67098 4.36032 7.75 4.55109 7.75 4.75V6.25H9.25C9.44891 6.25 9.63968 6.32902 9.78033 6.46967C9.92098 6.61032 10 6.80109 10 7C10 7.19891 9.92098 7.38968 9.78033 7.53033C9.63968 7.67098 9.44891 7.75 9.25 7.75H7.75V9.25C7.75 9.44891 7.67098 9.63968 7.53033 9.78033C7.38968 9.92098 7.19891 10 7 10C6.80109 10 6.61032 9.92098 6.46967 9.78033C6.32902 9.63968 6.25 9.44891 6.25 9.25V7.75H4.75C4.55109 7.75 4.36032 7.67098 4.21967 7.53033C4.07902 7.38968 4 7.19891 4 7C4 6.80109 4.07902 6.61032 4.21967 6.46967C4.36032 6.32902 4.55109 6.25 4.75 6.25H6.25V4.75C6.25 4.55109 6.32902 4.36032 6.46967 4.21967C6.61032 4.07902 6.80109 4 7 4Z" fill="black"/>
<path fill-rule="evenodd" clip-rule="evenodd" d="M1.61595e-08 6.99999C9.44369e-05 5.88066 0.268612 4.77767 0.783029 3.78355C1.29745 2.78943 2.04276 1.93317 2.95645 1.28659C3.87015 0.640006 4.92557 0.221964 6.0342 0.0675279C7.14282 -0.0869081 8.27232 0.0267653 9.32794 0.399013C10.3836 0.77126 11.3345 1.39123 12.101 2.20691C12.8676 3.02259 13.4273 4.01019 13.7333 5.08688C14.0393 6.16357 14.0827 7.29794 13.8597 8.39485C13.6368 9.49175 13.154 10.5192 12.452 11.391L15.78 14.72C15.8537 14.7887 15.9128 14.8715 15.9538 14.9635C15.9948 15.0555 16.0168 15.1548 16.0186 15.2555C16.0204 15.3562 16.0018 15.4562 15.9641 15.5496C15.9264 15.643 15.8703 15.7278 15.799 15.799C15.7278 15.8702 15.643 15.9264 15.5496 15.9641C15.4562 16.0018 15.3562 16.0204 15.2555 16.0186C15.1548 16.0168 15.0555 15.9948 14.9635 15.9538C14.8715 15.9128 14.7887 15.8537 14.72 15.78L11.391 12.452C10.3625 13.2804 9.12074 13.8009 7.80901 13.9536C6.49727 14.1062 5.16912 13.8846 3.97795 13.3145C2.78677 12.7444 1.78117 11.8489 1.07727 10.7316C0.373379 9.61424 -8.9698e-05 8.32057 1.61595e-08 6.99999ZM7 1.49999C5.54131 1.49999 4.14236 2.07945 3.11091 3.1109C2.07946 4.14235 1.5 5.5413 1.5 6.99999C1.5 8.45868 2.07946 9.85763 3.11091 10.8891C4.14236 11.9205 5.54131 12.5 7 12.5C8.45869 12.5 9.85764 11.9205 10.8891 10.8891C11.9205 9.85763 12.5 8.45868 12.5 6.99999C12.5 5.5413 11.9205 4.14235 10.8891 3.1109C9.85764 2.07945 8.45869 1.49999 7 1.49999Z" fill="black"/>
</svg>
