<svg width="23" height="20" viewBox="0 0 23 20" fill="none" xmlns="http://www.w3.org/2000/svg">
<path d="M19.7155 12.5H8.26453L8.5202 13.75H19.0053C19.6069 13.75 20.0528 14.3086 19.9195 14.8953L19.7039 15.8436C20.4341 16.198 20.9375 16.9464 20.9375 17.8125C20.9375 19.0313 19.9407 20.0173 18.7178 19.9998C17.5529 19.983 16.5948 19.0376 16.5633 17.8729C16.5461 17.2367 16.801 16.6601 17.2197 16.25H9.03031C9.43566 16.6471 9.6875 17.2002 9.6875 17.8125C9.6875 19.0552 8.65125 20.0559 7.3957 19.9976C6.28086 19.9458 5.37418 19.045 5.31559 17.9305C5.27035 17.0698 5.72324 16.3112 6.41133 15.9154L3.6673 2.5H0.9375C0.419727 2.5 0 2.08027 0 1.5625V0.9375C0 0.419727 0.419727 0 0.9375 0H4.94254C5.38789 0 5.77176 0.31332 5.86102 0.749609L6.21906 2.5H21.5621C22.1637 2.5 22.6096 3.05863 22.4763 3.64527L20.6297 11.7703C20.5327 12.1971 20.1532 12.5 19.7155 12.5ZM15.9375 6.5625H14.0625V5C14.0625 4.6548 13.7827 4.375 13.4375 4.375H12.8125C12.4673 4.375 12.1875 4.6548 12.1875 5V6.5625H10.3125C9.9673 6.5625 9.6875 6.8423 9.6875 7.1875V7.8125C9.6875 8.1577 9.9673 8.4375 10.3125 8.4375H12.1875V10C12.1875 10.3452 12.4673 10.625 12.8125 10.625H13.4375C13.7827 10.625 14.0625 10.3452 14.0625 10V8.4375H15.9375C16.2827 8.4375 16.5625 8.1577 16.5625 7.8125V7.1875C16.5625 6.8423 16.2827 6.5625 15.9375 6.5625Z" fill="black"/>
</svg>
