<svg width="17" height="13" viewBox="0 0 17 13" fill="none" xmlns="http://www.w3.org/2000/svg">
<path d="M16.7967 2.45417C16.7183 2.36401 16.6215 2.2917 16.5128 2.2421C16.4042 2.19251 16.2861 2.16679 16.1667 2.16667H4.65083L4.48833 1.19667C4.45598 1.00208 4.35566 0.825282 4.2052 0.697716C4.05475 0.570151 3.86392 0.500091 3.66667 0.5H1.79167C1.57065 0.5 1.35869 0.587797 1.20241 0.744078C1.04613 0.900358 0.958334 1.11232 0.958334 1.33333C0.958334 1.55435 1.04613 1.76631 1.20241 1.92259C1.35869 2.07887 1.57065 2.16667 1.79167 2.16667H2.96083L4.51083 11.47L4.54833 11.5733L4.59333 11.6992L4.69333 11.8483L4.7725 11.9417L4.93333 12.05L5.02667 12.1042C5.12358 12.1447 5.22746 12.1659 5.3325 12.1667H14.5C14.721 12.1667 14.933 12.0789 15.0893 11.9226C15.2455 11.7663 15.3333 11.5543 15.3333 11.3333C15.3333 11.1123 15.2455 10.9004 15.0893 10.7441C14.933 10.5878 14.721 10.5 14.5 10.5H6.03917L5.90083 9.66667H15.3333C15.5339 9.66669 15.7277 9.59441 15.8792 9.46307C16.0308 9.33174 16.1299 9.15017 16.1583 8.95167L16.9917 3.11833C17.0085 3.00012 16.9999 2.87967 16.9662 2.76509C16.9326 2.65052 16.8748 2.54449 16.7967 2.45417ZM15.2058 3.83333L14.9683 5.5H12V3.83333H15.2058ZM11.1667 3.83333V5.5H8.66667V3.83333H11.1667ZM11.1667 6.33333V8H8.66667V6.33333H11.1667ZM7.83333 3.83333V5.5H5.33333L5.21 5.525L4.92833 3.83333H7.83333ZM5.345 6.33333H7.83333V8H5.6225L5.345 6.33333ZM12 8V6.33333H14.8483L14.6108 8H12Z" fill="black"/>
</svg>
