<svg width="22" height="22" viewBox="0 0 22 22" fill="none" xmlns="http://www.w3.org/2000/svg">
<path d="M2.41137 12.6771C2.35506 12.3546 2.42755 12.0228 2.61326 11.7532C2.79897 11.4835 3.08307 11.2975 3.40449 11.2351C3.7259 11.1727 4.05898 11.2389 4.33211 11.4194C4.60524 11.6 4.79661 11.8805 4.8651 12.2007C5.14908 13.6497 5.93677 14.9514 7.08862 15.8752C8.24048 16.799 9.68215 17.2854 11.1582 17.248C12.8153 17.206 14.3878 16.5075 15.5299 15.3061C16.6719 14.1047 17.29 12.4988 17.248 10.8418L19.7472 10.7785C19.8695 15.6094 16.0533 19.6248 11.2215 19.7472C6.9354 19.8557 3.22045 16.8438 2.41137 12.6771Z" fill="url(#paint0_linear_20_5)"/>
<path d="M4.48052 7.08715C4.35549 6.98066 4.25267 6.85058 4.17794 6.70434C4.1032 6.55809 4.05802 6.39856 4.04497 6.23485C4.03192 6.07113 4.05127 5.90645 4.10189 5.75022C4.15251 5.59399 4.23343 5.44926 4.34001 5.32431C5.13642 4.38785 6.12164 3.63016 7.23117 3.10085C8.3407 2.57155 9.54952 2.28257 10.7785 2.25283C15.6103 2.13046 19.6249 5.94755 19.7472 10.7785L17.248 10.8418C17.216 9.57707 16.8009 8.35183 16.0576 7.32805C15.3144 6.30428 14.2779 5.53017 13.0853 5.10806C11.8926 4.68596 10.6 4.63573 9.37819 4.96402C8.15639 5.29231 7.06299 5.98365 6.24253 6.94666C6.02748 7.19892 5.72104 7.35544 5.39061 7.38178C5.06018 7.40813 4.73282 7.30215 4.48052 7.08715Z" fill="url(#paint1_linear_20_5)"/>
<defs>
<linearGradient id="paint0_linear_20_5" x1="83.1498" y1="-419.715" x2="1587.45" y2="-457.811" gradientUnits="userSpaceOnUse">
<stop/>
<stop offset="1" stop-opacity="0.55"/>
</linearGradient>
<linearGradient id="paint1_linear_20_5" x1="230.516" y1="-432.2" x2="1350.8" y2="-460.571" gradientUnits="userSpaceOnUse">
<stop stop-opacity="0"/>
<stop offset="1" stop-opacity="0.55"/>
</linearGradient>
</defs>
</svg>
