<svg width="18" height="18" viewBox="0 0 18 18" fill="none" xmlns="http://www.w3.org/2000/svg">
<path d="M10.875 7.75C10.875 7.91576 10.8092 8.07473 10.6919 8.19194C10.5747 8.30915 10.4158 8.375 10.25 8.375H5.25C5.08424 8.375 4.92527 8.30915 4.80806 8.19194C4.69085 8.07473 4.625 7.91576 4.625 7.75C4.625 7.58423 4.69085 7.42526 4.80806 7.30805C4.92527 7.19084 5.08424 7.125 5.25 7.125H10.25C10.4158 7.125 10.5747 7.19084 10.6919 7.30805C10.8092 7.42526 10.875 7.58423 10.875 7.75ZM16.9422 16.9422C16.8841 17.0003 16.8152 17.0464 16.7393 17.0778C16.6635 17.1093 16.5821 17.1255 16.5 17.1255C16.4179 17.1255 16.3365 17.1093 16.2607 17.0778C16.1848 17.0464 16.1159 17.0003 16.0578 16.9422L12.1469 13.0305C10.7857 14.1642 9.03984 14.7296 7.27245 14.6089C5.50506 14.4883 3.85223 13.6909 2.65779 12.3826C1.46335 11.0744 0.819262 9.35597 0.859512 7.58492C0.899762 5.81388 1.62125 4.12653 2.87389 2.87389C4.12653 1.62125 5.81388 0.899756 7.58493 0.859506C9.35597 0.819256 11.0744 1.46334 12.3826 2.65779C13.6909 3.85223 14.4883 5.50506 14.6089 7.27244C14.7296 9.03983 14.1642 10.7857 13.0305 12.1469L16.9422 16.0578C17.0003 16.1159 17.0464 16.1848 17.0779 16.2607C17.1093 16.3365 17.1255 16.4179 17.1255 16.5C17.1255 16.5821 17.1093 16.6635 17.0779 16.7393C17.0464 16.8152 17.0003 16.8841 16.9422 16.9422ZM7.75 13.375C8.86252 13.375 9.95006 13.0451 10.8751 12.427C11.8001 11.8089 12.5211 10.9304 12.9468 9.90259C13.3726 8.87476 13.484 7.74376 13.2669 6.65261C13.0499 5.56147 12.5141 4.55919 11.7275 3.77252C10.9408 2.98585 9.93853 2.45012 8.84738 2.23308C7.75624 2.01604 6.62524 2.12743 5.59741 2.55317C4.56957 2.97892 3.69107 3.69989 3.07298 4.62491C2.4549 5.54994 2.125 6.63748 2.125 7.75C2.12666 9.24133 2.71982 10.6711 3.77435 11.7256C4.82889 12.7802 6.25867 13.3733 7.75 13.375Z" fill="black"/>
</svg>
